<svg width="52" height="47" viewBox="0 0 52 47" fill="none" xmlns="http://www.w3.org/2000/svg">
<path d="M49.1292 0H2.87083C1.28483 0 0 1.16129 0 2.59479V44.4072C0 45.8387 1.28483 47 2.87083 47H27.7767V28.7993H20.9993V21.7062H27.7767V16.4755C27.7767 10.4046 31.8782 7.09896 37.8712 7.09896C40.742 7.09896 43.2077 7.29283 43.927 7.379V13.724L39.7713 13.726C36.5127 13.726 35.8822 15.1262 35.8822 17.1785V21.7081H43.654L42.6422 28.8012H35.8822V47H49.1335C50.7152 47 52 45.8387 52 44.4052V2.59479C52 1.16129 50.7152 0 49.1292 0Z" fill="white"/>
</svg>
