<svg width="31" height="28" viewBox="0 0 31 28" fill="none" xmlns="http://www.w3.org/2000/svg">
<path d="M28.562 0H1.669C0.746958 0 0 0.667746 0 1.49201V25.5343C0 26.3574 0.746958 27.0251 1.669 27.0251H16.1484V16.5597H12.2083V12.4811H16.1484V9.47344C16.1484 5.98269 18.5329 4.08192 22.017 4.08192C23.686 4.08192 25.1195 4.1934 25.5377 4.24295V7.89134L23.1217 7.89247C21.2272 7.89247 20.8607 8.69759 20.8607 9.87769V12.4822H25.3789L24.7907 16.5608H20.8607V27.0251H28.5645C29.4841 27.0251 30.231 26.3574 30.231 25.5331V1.49201C30.231 0.667746 29.4841 0 28.562 0Z" fill="white"/>
</svg>
