<svg width="49" height="49" viewBox="0 0 49 49" fill="none" xmlns="http://www.w3.org/2000/svg">
<path d="M46.5 0H1.9375C0.86582 0 0 0.86582 0 1.9375V46.5C0 47.5717 0.86582 48.4375 1.9375 48.4375H46.5C47.5717 48.4375 48.4375 47.5717 48.4375 46.5V1.9375C48.4375 0.86582 47.5717 0 46.5 0ZM14.3678 41.2748H7.18086V18.158H14.3678V41.2748ZM10.7773 14.9975C9.95346 14.9975 9.14808 14.7532 8.46305 14.2954C7.77801 13.8377 7.24409 13.1871 6.92881 12.426C6.61352 11.6648 6.53103 10.8272 6.69176 10.0192C6.85249 9.21111 7.24923 8.46887 7.8318 7.88629C8.41438 7.30372 9.15662 6.90698 9.96467 6.74625C10.7727 6.58552 11.6103 6.66801 12.3715 6.9833C13.1326 7.29859 13.7832 7.83251 14.2409 8.51754C14.6987 9.20257 14.943 10.008 14.943 10.8318C14.9369 13.1326 13.0721 14.9975 10.7773 14.9975ZM41.2748 41.2748H34.0939V30.0312C34.0939 27.349 34.0455 23.9039 30.3582 23.9039C26.6225 23.9039 26.0473 26.8223 26.0473 29.8375V41.2748H18.8725V18.158H25.7627V21.3186H25.8596C26.8162 19.5021 29.1594 17.5828 32.659 17.5828C39.9367 17.5828 41.2748 22.3721 41.2748 28.5963V41.2748Z" fill="white"/>
</svg>
