<svg width="30" height="28" viewBox="0 0 30 28" fill="none" xmlns="http://www.w3.org/2000/svg">
<path d="M28.8 0H1.2C0.53625 0 0 0.483074 0 1.08101V25.9441C0 26.5421 0.53625 27.0251 1.2 27.0251H28.8C29.4638 27.0251 30 26.5421 30 25.9441V1.08101C30 0.483074 29.4638 0 28.8 0ZM8.89875 23.0288H4.4475V10.1311H8.89875V23.0288ZM6.675 8.36766C6.16472 8.36766 5.66591 8.23135 5.24163 7.97597C4.81735 7.72059 4.48667 7.3576 4.29139 6.93292C4.09612 6.50823 4.04502 6.04092 4.14457 5.59008C4.24412 5.13923 4.48985 4.72511 4.85067 4.40007C5.21148 4.07503 5.6712 3.85367 6.17167 3.76399C6.67214 3.67432 7.19089 3.72034 7.66232 3.89625C8.13376 4.07216 8.5367 4.37006 8.82019 4.75226C9.10369 5.13447 9.255 5.58382 9.255 6.0435C9.25125 7.32719 8.09625 8.36766 6.675 8.36766ZM25.5638 23.0288H21.1162V16.7556C21.1162 15.2591 21.0863 13.3369 18.8025 13.3369C16.4888 13.3369 16.1325 14.9652 16.1325 16.6475V23.0288H11.6888V10.1311H15.9563V11.8944H16.0163C16.6087 10.881 18.06 9.81013 20.2275 9.81013C24.735 9.81013 25.5638 12.4822 25.5638 15.955V23.0288Z" fill="white"/>
</svg>
