<svg width="52" height="42" viewBox="0 0 52 42" fill="none" xmlns="http://www.w3.org/2000/svg">
<path d="M52 4.97222C50.053 5.82985 47.9876 6.3924 45.8727 6.6411C48.1014 5.31715 49.7688 3.23199 50.5635 0.775234C48.4691 2.01039 46.1777 2.8807 43.7883 3.34855C42.7905 2.28993 41.5843 1.44643 40.2448 0.870402C38.9052 0.294376 37.4609 -0.00188405 36.0013 9.0153e-06C29.1135 9.0153e-06 24.0522 6.387 25.6078 13.0173C21.3663 12.8063 17.2169 11.7111 13.4289 9.80272C9.64095 7.89436 6.29915 5.21555 3.6205 1.94023C2.25655 4.2746 1.83856 7.03772 2.45156 9.66751C3.06455 12.2973 4.66249 14.5962 6.92033 16.0967C5.22711 16.0436 3.57122 15.5888 2.09083 14.7702C1.97383 19.6821 5.51633 24.2775 10.647 25.3003C9.07559 25.7245 7.42746 25.7864 5.82833 25.4812C6.50977 27.5881 7.83689 29.4305 9.62399 30.7506C11.4111 32.0708 13.5687 32.8026 15.795 32.8437C11.3234 36.3298 5.64264 37.9098 0 37.2367C4.87828 40.3517 10.5556 42.0053 16.354 42C36.1617 42 47.3525 25.3736 46.6765 10.4612C48.7646 8.95994 50.5672 7.10129 52 4.97222Z" fill="white"/>
</svg>
