<svg width="30" height="28" viewBox="0 0 30 28" fill="none" xmlns="http://www.w3.org/2000/svg">
<path d="M30 3.1994C28.8767 3.75125 27.6851 4.11323 26.465 4.27326C27.7508 3.42135 28.7128 2.07964 29.1712 0.498829C27.963 1.2936 26.641 1.8536 25.2625 2.15464C24.6868 1.47347 23.991 0.930712 23.2181 0.560065C22.4453 0.189418 21.612 -0.0012123 20.77 5.80095e-06C16.7962 5.80095e-06 13.8763 4.10975 14.7738 8.37608C12.3267 8.2403 9.93281 7.53556 7.74745 6.30761C5.56209 5.07967 3.63413 3.35598 2.08875 1.24845C1.30186 2.75052 1.06071 4.52846 1.41436 6.22062C1.76801 7.91277 2.6899 9.39204 3.9925 10.3575C3.01564 10.3233 2.06032 10.0307 1.20625 9.50397C1.13875 12.6646 3.1825 15.6215 6.1425 16.2797C5.23592 16.5526 4.28507 16.5924 3.3625 16.396C3.75564 17.7517 4.52128 18.9372 5.5523 19.7867C6.58331 20.6361 7.82811 21.107 9.1125 21.1335C6.53275 23.3766 3.25537 24.3933 0 23.9601C2.81439 25.9645 6.08979 27.0286 9.435 27.0251C20.8625 27.0251 27.3187 16.3268 26.9287 6.73135C28.1334 5.76533 29.1734 4.56936 30 3.1994Z" fill="white"/>
</svg>
